Coordinates
nRows=283
nColumns=2
inDegrees=yes
endheader
time	ankle_angle_r	
2.82744	 -4.668797	
2.8607	 -4.660314	
2.89397	 -4.670582	
2.92723	 -4.696962	
2.9605	 -4.729331	
2.99376	 -4.760215	
3.02702	 -4.778655	
3.06029	 -4.781442	
3.09355	 -4.779743	
3.12682	 -4.779609	
3.16008	 -4.779851	
3.19334	 -4.782363	
3.22661	 -4.787162	
3.25987	 -4.792943	
3.29314	 -4.796537	
3.3264	 -4.792310	
3.35966	 -4.787696	
3.39293	 -4.796390	
3.42619	 -4.813408	
3.45946	 -4.820427	
3.49272	 -4.808304	
3.52598	 -4.785372	
3.55925	 -4.762701	
3.59251	 -4.740737	
3.62578	 -4.725380	
3.65904	 -4.733997	
3.6923	 -4.764895	
3.72557	 -4.786419	
3.75883	 -4.772344	
3.7921	 -4.732673	
3.82536	 -4.705260	
3.85862	 -4.718815	
3.89189	 -4.760389	
3.92515	 -4.793036	
3.95842	 -4.796671	
3.99168	 -4.770051	
4.02494	 -4.722900	
4.05821	 -4.678680	
4.09147	 -4.654968	
4.12474	 -4.646906	
4.158	 -4.640034	
4.19126	 -4.625601	
4.22453	 -4.607879	
4.25779	 -4.596377	
4.29106	 -4.588435	
4.32432	 -4.577555	
4.35758	 -4.566726	
4.39085	 -4.557498	
4.42411	 -4.549290	
4.45738	 -4.546986	
4.49064	 -4.550325	
4.5239	 -4.553220	
4.55717	 -4.555489	
4.59043	 -4.556846	
4.6237	 -4.555023	
4.65696	 -4.554571	
4.69022	 -4.556977	
4.72349	 -4.557148	
4.75675	 -4.555844	
4.79002	 -4.554218	
4.82328	 -4.550399	
4.85654	 -4.548175	
4.88981	 -4.549385	
4.92307	 -4.552957	
4.95634	 -4.566037	
4.9896	 -4.589506	
5.02286	 -4.608551	
5.05613	 -4.614272	
5.08939	 -4.610843	
5.12266	 -4.607601	
5.15592	 -4.617060	
5.18918	 -4.643983	
5.22245	 -4.680172	
5.25571	 -4.713724	
5.28898	 -4.734059	
5.32224	 -4.741630	
5.3555	 -4.751647	
5.38877	 -4.771322	
5.42203	 -4.788752	
5.4553	 -4.792161	
5.48856	 -4.781953	
5.52182	 -4.764927	
5.55509	 -4.745344	
5.58835	 -4.722812	
5.62162	 -4.699520	
5.65488	 -4.679446	
5.68814	 -4.662764	
5.72141	 -4.650365	
5.75467	 -4.643885	
5.78794	 -4.641358	
5.8212	 -4.639991	
5.85446	 -4.637871	
5.88773	 -4.634631	
5.92099	 -4.633603	
5.95426	 -4.636715	
5.98752	 -4.641537	
6.02078	 -4.647400	
6.05405	 -4.652797	
6.08731	 -4.653311	
6.12058	 -4.651768	
6.15384	 -4.653634	
6.1871	 -4.655950	
6.22037	 -4.655873	
6.25363	 -4.653820	
6.2869	 -4.648681	
6.32016	 -4.645044	
6.35342	 -4.648590	
6.38669	 -4.655164	
6.41995	 -4.660627	
6.45322	 -4.664338	
6.48648	 -4.663967	
6.51974	 -4.663640	
6.55301	 -4.669695	
6.58627	 -4.680041	
6.61954	 -4.692920	
6.6528	 -4.707023	
6.68606	 -4.715662	
6.71933	 -4.718546	
6.75259	 -4.720401	
6.78586	 -4.719521	
6.81912	 -4.721427	
6.85238	 -4.740431	
6.88565	 -4.771409	
6.91891	 -4.792481	
6.95218	 -4.793990	
6.98544	 -4.781499	
7.0187	 -4.764352	
7.05197	 -4.746822	
7.08523	 -4.726183	
7.1185	 -4.703111	
7.15176	 -4.680588	
7.18502	 -4.657237	
7.21829	 -4.635467	
7.25155	 -4.620290	
7.28482	 -4.611990	
7.31808	 -4.608824	
7.35134	 -4.604905	
7.38461	 -4.595406	
7.41787	 -4.585161	
7.45114	 -4.577113	
7.4844	 -4.569561	
7.51766	 -4.565825	
7.55093	 -4.566886	
7.58419	 -4.567421	
7.61746	 -4.564473	
7.65072	 -4.557432	
7.68398	 -4.548660	
7.71725	 -4.545240	
7.75051	 -4.549034	
7.78378	 -4.556090	
7.81704	 -4.564409	
7.8503	 -4.570365	
7.88357	 -4.572021	
7.91683	 -4.573364	
7.9501	 -4.575405	
7.98336	 -4.580859	
8.01662	 -4.596332	
8.04989	 -4.616785	
8.08315	 -4.632275	
8.11642	 -4.641332	
8.14968	 -4.644134	
8.18294	 -4.647710	
8.21621	 -4.666515	
8.24947	 -4.694464	
8.28274	 -4.708702	
8.316	 -4.707261	
8.34926	 -4.703104	
8.38253	 -4.697759	
8.41579	 -4.691318	
8.44906	 -4.690921	
8.48232	 -4.700088	
8.51558	 -4.716537	
8.54885	 -4.736129	
8.58211	 -4.757326	
8.61538	 -4.778540	
8.64864	 -4.789901	
8.6819	 -4.783834	
8.71517	 -4.768882	
8.74843	 -4.760367	
8.7817	 -4.764596	
8.81496	 -4.773702	
8.84822	 -4.777381	
8.88149	 -4.779453	
8.91475	 -4.788919	
8.94802	 -4.801817	
8.98128	 -4.809081	
9.01454	 -4.809096	
9.04781	 -4.806527	
9.08107	 -4.808557	
9.11434	 -4.814103	
9.1476	 -4.811426	
9.18086	 -4.795440	
9.21413	 -4.773009	
9.24739	 -4.752517	
9.28066	 -4.736430	
9.31392	 -4.718539	
9.34718	 -4.694832	
9.38045	 -4.675493	
9.41371	 -4.668906	
9.44698	 -4.667745	
9.48024	 -4.665377	
9.5135	 -4.661496	
9.54677	 -4.653950	
9.58003	 -4.645151	
9.6133	 -4.640005	
9.64656	 -4.639287	
9.67982	 -4.645726	
9.71309	 -4.656867	
9.74635	 -4.661313	
9.77962	 -4.657476	
9.81288	 -4.652319	
9.84614	 -4.646662	
9.87941	 -4.642779	
9.91267	 -4.643998	
9.94594	 -4.644519	
9.9792	 -4.642788	
10.0125	 -4.644955	
10.0457	 -4.647465	
10.079	 -4.644067	
10.1123	 -4.639002	
10.1455	 -4.638367	
10.1788	 -4.645716	
10.212	 -4.661752	
10.2453	 -4.682694	
10.2786	 -4.706631	
10.3118	 -4.729013	
10.3451	 -4.738507	
10.3784	 -4.734503	
10.4116	 -4.729195	
10.4449	 -4.732027	
10.4782	 -4.747579	
10.5114	 -4.767371	
10.5447	 -4.768549	
10.578	 -4.744751	
10.6112	 -4.718467	
10.6445	 -4.715348	
10.6777	 -4.736911	
10.711	 -4.755160	
10.7443	 -4.744736	
10.7775	 -4.715199	
10.8108	 -4.692597	
10.8441	 -4.689428	
10.8773	 -4.701813	
10.9106	 -4.716145	
10.9439	 -4.724570	
10.9771	 -4.734280	
11.0104	 -4.749807	
11.0436	 -4.764539	
11.0769	 -4.771687	
11.1102	 -4.769032	
11.1434	 -4.762993	
11.1767	 -4.760118	
11.21	 -4.753189	
11.2432	 -4.740760	
11.2765	 -4.737867	
11.3098	 -4.747270	
11.343	 -4.754242	
11.3763	 -4.752296	
11.4096	 -4.747902	
11.4428	 -4.749270	
11.4761	 -4.756130	
11.5093	 -4.753183	
11.5426	 -4.731201	
11.5759	 -4.706751	
11.6091	 -4.695285	
11.6424	 -4.693653	
11.6757	 -4.700961	
11.7089	 -4.718852	
11.7422	 -4.740022	
11.7755	 -4.754430	
11.8087	 -4.752450	
11.842	 -4.735458	
11.8752	 -4.722479	
11.9085	 -4.725529	
11.9418	 -4.739413	
11.975	 -4.757778	
12.0083	 -4.771247	
12.0416	 -4.768420	
12.0748	 -4.755488	
12.1081	 -4.748175	
12.1414	 -4.747804	
12.1746	 -4.747366	
12.2079	 -4.745347	
